<?xml version="1.0"?>


<svg version="1.1" id="svg1" width="666.66669" height="666.66669" viewBox="0 0 666.66669 666.66669" xmlns:xlink="http://www.w3.org/1999/xlink" xmlns="http://www.w3.org/2000/svg" xmlns:svg="http://www.w3.org/2000/svg">
  <defs id="defs1">
    <color-profile name="sRGB IEC61966-2.1" id="color-profile1"></color-profile>
    <clipPath clipPathUnits="userSpaceOnUse" id="clipPath26">
      <path d="M 0,500 H 500 V 0 H 0 Z" transform="translate(-35.214401,-252.81401)" id="path26"></path>
    </clipPath>
    <clipPath clipPathUnits="userSpaceOnUse" id="clipPath28">
      <path d="M 0,500 H 500 V 0 H 0 Z" transform="translate(-50.334604,-247.32231)" id="path28"></path>
    </clipPath>
    <clipPath clipPathUnits="userSpaceOnUse" id="clipPath30">
      <path d="M 0,500 H 500 V 0 H 0 Z" transform="translate(-83.0663,-249.53121)" id="path30"></path>
    </clipPath>
    <clipPath clipPathUnits="userSpaceOnUse" id="clipPath32">
      <path d="M 0,500 H 500 V 0 H 0 Z" transform="translate(-93.1022,-257.9418)" id="path32"></path>
    </clipPath>
    <clipPath clipPathUnits="userSpaceOnUse" id="clipPath34">
      <path d="M 0,500 H 500 V 0 H 0 Z" transform="translate(-120.4366,-248.5635)" id="path34"></path>
    </clipPath>
    <clipPath clipPathUnits="userSpaceOnUse" id="clipPath36">
      <path d="M 0,500 H 500 V 0 H 0 Z" transform="translate(-145.19371,-261.0582)" id="path36"></path>
    </clipPath>
    <clipPath clipPathUnits="userSpaceOnUse" id="clipPath38">
      <path d="M 0,500 H 500 V 0 H 0 Z" transform="translate(-193.1498,-242.48181)" id="path38"></path>
    </clipPath>
    <clipPath clipPathUnits="userSpaceOnUse" id="clipPath40">
      <path d="M 0,500 H 500 V 0 H 0 Z" transform="translate(-223.43521,-246.88421)" id="path40"></path>
    </clipPath>
    <clipPath clipPathUnits="userSpaceOnUse" id="clipPath42">
      <path d="M 0,500 H 500 V 0 H 0 Z" transform="translate(-237.34023,-239.0937)" id="path42"></path>
    </clipPath>
    <clipPath clipPathUnits="userSpaceOnUse" id="clipPath44">
      <path d="M 0,500 H 500 V 0 H 0 Z" transform="translate(-260.19843,-239.0937)" id="path44"></path>
    </clipPath>
    <clipPath clipPathUnits="userSpaceOnUse" id="clipPath46">
      <path d="M 0,500 H 500 V 0 H 0 Z" transform="translate(-286.22943,-248.5635)" id="path46"></path>
    </clipPath>
    <clipPath clipPathUnits="userSpaceOnUse" id="clipPath48">
      <path d="M 0,500 H 500 V 0 H 0 Z" transform="translate(-310.98551,-248.5635)" id="path48"></path>
    </clipPath>
    <clipPath clipPathUnits="userSpaceOnUse" id="clipPath50">
      <path d="M 0,500 H 500 V 0 H 0 Z" transform="translate(-364.79703,-245.98011)" id="path50"></path>
    </clipPath>
    <clipPath clipPathUnits="userSpaceOnUse" id="clipPath52">
      <path d="M 0,500 H 500 V 0 H 0 Z" transform="translate(-397.85613,-246.88421)" id="path52"></path>
    </clipPath>
    <clipPath clipPathUnits="userSpaceOnUse" id="clipPath54">
      <path d="M 0,500 H 500 V 0 H 0 Z" transform="translate(-414.93251,-257.9418)" id="path54"></path>
    </clipPath>
    <clipPath clipPathUnits="userSpaceOnUse" id="clipPath56">
      <path d="M 0,500 H 500 V 0 H 0 Z" transform="translate(-452.88199,-261.0582)" id="path56"></path>
    </clipPath>
    <clipPath clipPathUnits="userSpaceOnUse" id="clipPath58">
      <path d="M 0,500 H 500 V 0 H 0 Z" transform="translate(-474.53989,-247.73111)" id="path58"></path>
    </clipPath>
  </defs>
  <namedview id="namedview1" pagecolor="#ffffff" bordercolor="#000000" borderopacity="0.25">
    <page x="0" y="0" id="page24" width="666.66669" height="666.66669" margin="317.42001 33.333332" bleed="0"></page>
  </namedview>
  <g id="layer-MC0" transform="translate(-686.66668)">
    <path id="path25" d="M 0,0 C -0.129,-0.455 -0.347,-0.893 -0.652,-1.316 -0.96,-1.74 -1.379,-2.088 -1.913,-2.36 -2.446,-2.632 -3.109,-2.769 -3.899,-2.769 h -3.143 v 7.897 h 3.262 c 0.771,0 1.413,-0.126 1.927,-0.379 C -1.339,4.497 -0.934,4.175 -0.638,3.781 -0.341,3.388 -0.129,2.965 0,2.511 0.128,2.057 0.192,1.628 0.192,1.225 0.192,0.862 0.128,0.454 0,0 m -0.178,7.412 c -1.137,0.554 -2.506,0.832 -4.106,0.832 h -5.93 V -13.72 h 3.172 v 7.835 h 3.143 c 1.324,0 2.451,0.207 3.379,0.621 0.93,0.412 1.676,0.968 2.24,1.664 0.563,0.695 0.973,1.467 1.23,2.314 0.256,0.847 0.385,1.704 0.385,2.571 0,1.473 -0.301,2.723 -0.904,3.752 -0.603,1.028 -1.472,1.82 -2.609,2.375" style="fill:#4d2f19;fill-opacity:1;fill-rule:nonzero;stroke:none" transform="matrix(1.3333333,0,0,-1.3333333,733.6192,329.58133)" clip-path="url(#clipPath26)"></path>
    <path id="path27" d="M 0,0 2.994,7.452 5.876,0 Z M 3.039,14.613 -6.419,-8.229 h 3.113 l 2.188,5.447 h 8.07 l 2.106,-5.447 h 3.616 L 3.217,14.613 Z" style="fill:#4d2f19;fill-opacity:1;fill-rule:nonzero;stroke:none" transform="matrix(1.3333333,0,0,-1.3333333,753.77947,336.9036)" clip-path="url(#clipPath28)"></path>
    <path id="path29" d="m 0,0 c -0.524,0.484 -1.108,0.893 -1.75,1.225 -0.642,0.333 -1.29,0.621 -1.942,0.862 -0.77,0.303 -1.502,0.625 -2.193,0.969 -0.693,0.342 -1.256,0.745 -1.69,1.21 -0.435,0.464 -0.653,1.008 -0.653,1.634 0,0.887 0.327,1.588 0.979,2.102 0.652,0.515 1.531,0.772 2.638,0.772 0.81,0 1.651,-0.142 2.521,-0.424 0.869,-0.282 1.679,-0.625 2.431,-1.029 l 1.216,2.481 c -0.831,0.504 -1.779,0.938 -2.847,1.301 -1.067,0.363 -2.323,0.545 -3.766,0.545 -1.265,-0.061 -2.381,-0.343 -3.349,-0.847 -0.969,-0.505 -1.725,-1.196 -2.269,-2.073 -0.544,-0.877 -0.815,-1.901 -0.815,-3.071 0,-0.988 0.182,-1.82 0.548,-2.496 0.366,-0.676 0.846,-1.24 1.438,-1.694 0.594,-0.454 1.235,-0.842 1.928,-1.164 0.691,-0.323 1.373,-0.616 2.046,-0.877 0.691,-0.263 1.338,-0.566 1.942,-0.909 0.602,-0.343 1.086,-0.751 1.452,-1.225 0.366,-0.474 0.549,-1.054 0.549,-1.739 0,-0.807 -0.208,-1.457 -0.623,-1.951 -0.415,-0.495 -0.939,-0.858 -1.572,-1.09 -0.632,-0.232 -1.275,-0.348 -1.927,-0.348 -0.592,0 -1.22,0.091 -1.882,0.272 -0.662,0.182 -1.3,0.429 -1.913,0.741 -0.613,0.313 -1.156,0.641 -1.631,0.984 l -1.422,-2.511 c 0.612,-0.424 1.299,-0.812 2.06,-1.165 0.761,-0.353 1.571,-0.635 2.431,-0.847 0.86,-0.212 1.744,-0.318 2.654,-0.318 1.502,0 2.782,0.277 3.839,0.832 1.058,0.555 1.868,1.306 2.432,2.254 0.563,0.948 0.845,2.007 0.845,3.177 0,1.029 -0.154,1.901 -0.46,2.617 C 0.938,-1.085 0.523,-0.484 0,0" style="fill:#4d2f19;fill-opacity:1;fill-rule:nonzero;stroke:none" transform="matrix(1.3333333,0,0,-1.3333333,797.42173,333.9584)" clip-path="url(#clipPath30)"></path>
    <path id="path31" d="M 0,0 H 5.515 V -18.848 H 8.687 V 0 H 14.35 V 3.116 H 0 Z" style="fill:#4d2f19;fill-opacity:1;fill-rule:nonzero;stroke:none" transform="matrix(1.3333333,0,0,-1.3333333,810.80293,322.74427)" clip-path="url(#clipPath32)"></path>
    <path id="path33" d="M 0,0 H 9.755 V 3.115 H 0 v 6.263 h 10.971 v 3.117 H -3.172 V -9.47 h 14.557 v 3.117 L 0,-6.353 Z" style="fill:#4d2f19;fill-opacity:1;fill-rule:nonzero;stroke:none" transform="matrix(1.3333333,0,0,-1.3333333,847.2488,335.24867)" clip-path="url(#clipPath34)"></path>
    <path id="path35" d="m 0,0 h -3.172 v -21.964 h 13.935 v 3.116 H 0 Z" style="fill:#4d2f19;fill-opacity:1;fill-rule:nonzero;stroke:none" transform="matrix(1.3333333,0,0,-1.3333333,880.25827,318.58907)" clip-path="url(#clipPath36)"></path>
    <path id="path37" d="m 0,0 c -0.841,-0.343 -1.814,-0.514 -2.921,-0.514 -1.166,0 -2.213,0.201 -3.141,0.605 -0.93,0.403 -1.726,0.968 -2.388,1.694 -0.662,0.727 -1.171,1.584 -1.526,2.572 -0.356,0.987 -0.534,2.067 -0.534,3.237 0,1.149 0.197,2.213 0.593,3.192 0.395,0.978 0.934,1.835 1.615,2.571 0.683,0.737 1.473,1.311 2.372,1.724 0.899,0.414 1.853,0.621 2.861,0.621 1.028,0 1.962,-0.187 2.802,-0.559 0.841,-0.374 1.547,-0.762 2.12,-1.166 l 1.245,3.026 c -0.731,0.484 -1.63,0.908 -2.697,1.271 -1.068,0.363 -2.264,0.544 -3.588,0.544 -1.542,0 -2.96,-0.283 -4.255,-0.847 -1.294,-0.565 -2.421,-1.361 -3.38,-2.39 -0.958,-1.028 -1.695,-2.234 -2.209,-3.615 -0.514,-1.382 -0.77,-2.9 -0.77,-4.553 0,-1.493 0.252,-2.9 0.756,-4.221 0.504,-1.321 1.22,-2.491 2.149,-3.509 0.93,-1.019 2.061,-1.821 3.395,-2.405 1.334,-0.586 2.842,-0.887 4.522,-0.908 1.008,-0.02 1.932,0.081 2.771,0.302 0.84,0.223 1.572,0.49 2.195,0.803 0.623,0.311 1.092,0.579 1.408,0.801 L 2.061,1.18 C 1.527,0.736 0.84,0.343 0,0" style="fill:#4d2f19;fill-opacity:1;fill-rule:nonzero;stroke:none" transform="matrix(1.3333333,0,0,-1.3333333,944.19973,343.3576)" clip-path="url(#clipPath38)"></path>
    <path id="path39" d="m 0,0 c -0.396,-0.979 -0.944,-1.836 -1.646,-2.572 -0.701,-0.736 -1.517,-1.311 -2.445,-1.724 -0.93,-0.414 -1.928,-0.62 -2.995,-0.62 -1.088,0 -2.1,0.206 -3.04,0.62 -0.938,0.413 -1.763,0.988 -2.475,1.724 -0.711,0.736 -1.27,1.593 -1.675,2.572 -0.406,0.978 -0.608,2.031 -0.608,3.161 0,1.11 0.193,2.158 0.578,3.147 0.386,0.988 0.934,1.855 1.646,2.602 0.712,0.745 1.531,1.331 2.46,1.754 0.93,0.424 1.948,0.635 3.054,0.635 1.068,0 2.07,-0.211 3.01,-0.635 0.938,-0.423 1.759,-1.009 2.46,-1.754 C -0.974,8.163 -0.421,7.301 -0.015,6.323 0.39,5.344 0.593,4.291 0.593,3.161 0.593,2.031 0.395,0.978 0,0 m 0.593,11.058 c -1.028,1.048 -2.205,1.87 -3.528,2.465 -1.325,0.595 -2.738,0.892 -4.24,0.892 -1.523,0 -2.945,-0.297 -4.27,-0.892 -1.324,-0.595 -2.49,-1.417 -3.498,-2.465 -1.008,-1.05 -1.794,-2.25 -2.357,-3.601 -0.563,-1.351 -0.845,-2.783 -0.845,-4.296 0,-1.573 0.282,-3.04 0.845,-4.401 0.563,-1.362 1.349,-2.552 2.357,-3.57 1.008,-1.019 2.174,-1.811 3.498,-2.375 1.325,-0.565 2.747,-0.848 4.27,-0.848 1.502,0 2.92,0.288 4.254,0.863 1.335,0.574 2.51,1.376 3.528,2.405 1.018,1.028 1.814,2.218 2.388,3.57 0.572,1.35 0.859,2.803 0.859,4.356 0,1.513 -0.287,2.945 -0.859,4.296 -0.574,1.351 -1.375,2.551 -2.402,3.601" style="fill:#4d2f19;fill-opacity:1;fill-rule:nonzero;stroke:none" transform="matrix(1.3333333,0,0,-1.3333333,984.58027,337.48773)" clip-path="url(#clipPath40)"></path>
    <path id="path41" d="m 0,0 h 3.172 v 9.167 h 8.51 v 3.085 h -8.51 v 6.596 h 9.725 v 3.116 H 0 Z" style="fill:#4d2f19;fill-opacity:1;fill-rule:nonzero;stroke:none" transform="matrix(1.3333333,0,0,-1.3333333,1003.1203,347.87507)" clip-path="url(#clipPath42)"></path>
    <path id="path43" d="m 0,0 h 3.172 v 9.167 h 8.509 v 3.085 H 3.172 v 6.596 h 9.725 v 3.116 H 0 Z" style="fill:#4d2f19;fill-opacity:1;fill-rule:nonzero;stroke:none" transform="matrix(1.3333333,0,0,-1.3333333,1033.5979,347.87507)" clip-path="url(#clipPath44)"></path>
    <path id="path45" d="M 0,0 H 9.755 V 3.115 H 0 v 6.263 h 10.971 v 3.117 H -3.172 V -9.47 h 14.557 v 3.117 L 0,-6.353 Z" style="fill:#4d2f19;fill-opacity:1;fill-rule:nonzero;stroke:none" transform="matrix(1.3333333,0,0,-1.3333333,1068.3059,335.24867)" clip-path="url(#clipPath46)"></path>
    <path id="path47" d="M 0,0 H 9.755 V 3.115 H 0 v 6.263 h 10.971 v 3.117 H -3.172 V -9.47 h 14.557 v 3.117 L 0,-6.353 Z" style="fill:#4d2f19;fill-opacity:1;fill-rule:nonzero;stroke:none" transform="matrix(1.3333333,0,0,-1.3333333,1101.314,335.24867)" clip-path="url(#clipPath48)"></path>
    <path id="path49" d="m 0,0 -5.751,14.956 h -3.143 l 2.193,-5.681 -3.671,-9.628 -5.282,15.309 h -3.677 l 8.569,-22.871 5.623,13.144 5.051,-13.083 8.42,22.81 h -3.38 z" style="fill:#4d2f19;fill-opacity:1;fill-rule:nonzero;stroke:none" transform="matrix(1.3333333,0,0,-1.3333333,1173.0627,338.6932)" clip-path="url(#clipPath50)"></path>
    <path id="path51" d="m 0,0 c -0.396,-0.979 -0.944,-1.836 -1.646,-2.572 -0.701,-0.736 -1.517,-1.311 -2.445,-1.724 -0.93,-0.414 -1.928,-0.62 -2.995,-0.62 -1.088,0 -2.1,0.206 -3.039,0.62 -0.939,0.413 -1.764,0.988 -2.476,1.724 -0.711,0.736 -1.27,1.593 -1.675,2.572 -0.406,0.978 -0.608,2.031 -0.608,3.161 0,1.11 0.193,2.158 0.578,3.147 0.386,0.988 0.934,1.855 1.646,2.602 0.712,0.745 1.531,1.331 2.46,1.754 0.93,0.424 1.948,0.635 3.054,0.635 1.068,0 2.07,-0.211 3.01,-0.635 0.938,-0.423 1.759,-1.009 2.46,-1.754 C -0.974,8.163 -0.421,7.301 -0.015,6.323 0.39,5.344 0.593,4.291 0.593,3.161 0.593,2.031 0.395,0.978 0,0 m 0.593,11.058 c -1.028,1.048 -2.205,1.87 -3.528,2.465 -1.325,0.595 -2.738,0.892 -4.24,0.892 -1.523,0 -2.945,-0.297 -4.27,-0.892 -1.324,-0.595 -2.49,-1.417 -3.498,-2.465 -1.008,-1.05 -1.794,-2.25 -2.357,-3.601 -0.563,-1.351 -0.845,-2.783 -0.845,-4.296 0,-1.573 0.282,-3.04 0.845,-4.401 0.563,-1.362 1.349,-2.552 2.357,-3.57 1.008,-1.019 2.174,-1.811 3.498,-2.375 1.325,-0.565 2.747,-0.848 4.27,-0.848 1.502,0 2.92,0.288 4.254,0.863 1.335,0.574 2.51,1.376 3.528,2.405 1.018,1.028 1.814,2.218 2.388,3.57 0.572,1.35 0.859,2.803 0.859,4.356 0,1.513 -0.287,2.945 -0.859,4.296 -0.574,1.351 -1.375,2.551 -2.402,3.601" style="fill:#4d2f19;fill-opacity:1;fill-rule:nonzero;stroke:none" transform="matrix(1.3333333,0,0,-1.3333333,1217.1415,337.48773)" clip-path="url(#clipPath52)"></path>
    <path id="path53" d="M 0,0 H 3.262 C 4.013,0 4.645,-0.132 5.159,-0.393 5.673,-0.656 6.083,-0.989 6.39,-1.392 6.695,-1.796 6.913,-2.219 7.042,-2.663 7.17,-3.106 7.234,-3.53 7.234,-3.933 7.234,-4.357 7.17,-4.796 7.042,-5.249 6.913,-5.703 6.695,-6.127 6.39,-6.52 6.083,-6.913 5.658,-7.241 5.115,-7.503 4.571,-7.766 3.894,-7.896 3.083,-7.896 H 0 Z m 8.865,-8.713 c 0.574,0.686 0.988,1.452 1.246,2.299 0.256,0.847 0.385,1.704 0.385,2.571 0,1.13 -0.193,2.123 -0.578,2.98 C 9.532,-0.005 8.999,0.715 8.317,1.301 7.635,1.885 6.814,2.334 5.856,2.647 4.897,2.96 3.854,3.116 2.729,3.116 H -3.172 V -18.848 H 0 v 7.866 h 3.143 c 0.179,0 0.343,0.013 0.515,0.02 l 4.97,-7.886 h 3.676 l -5.325,8.672 c 0.758,0.388 1.392,0.871 1.886,1.463" style="fill:#4d2f19;fill-opacity:1;fill-rule:nonzero;stroke:none" transform="matrix(1.3333333,0,0,-1.3333333,1239.91,322.74427)" clip-path="url(#clipPath54)"></path>
    <path id="path55" d="m 0,0 h -4.091 l -8.42,-9.107 -0.445,-0.635 0.089,1.089 V 0 h -3.202 v -21.964 h 3.202 v 8.743 l 1.66,1.664 7.62,-10.407 h 4.002 l -9.31,12.434 z" style="fill:#4d2f19;fill-opacity:1;fill-rule:nonzero;stroke:none" transform="matrix(1.3333333,0,0,-1.3333333,1290.5093,318.58907)" clip-path="url(#clipPath56)"></path>
    <path id="path57" d="m 0,0 c -0.306,0.715 -0.722,1.316 -1.245,1.8 -0.524,0.484 -1.108,0.893 -1.75,1.225 -0.642,0.333 -1.289,0.621 -1.942,0.862 -0.77,0.303 -1.501,0.625 -2.193,0.969 -0.692,0.342 -1.256,0.746 -1.69,1.21 -0.435,0.464 -0.653,1.008 -0.653,1.634 0,0.887 0.327,1.588 0.979,2.102 0.652,0.515 1.531,0.772 2.638,0.772 0.811,0 1.651,-0.142 2.521,-0.424 0.869,-0.282 1.679,-0.625 2.431,-1.029 l 1.216,2.481 c -0.831,0.504 -1.779,0.938 -2.847,1.302 -1.067,0.362 -2.323,0.544 -3.765,0.544 -1.265,-0.061 -2.382,-0.343 -3.35,-0.847 -0.969,-0.505 -1.725,-1.196 -2.268,-2.073 -0.545,-0.877 -0.815,-1.901 -0.815,-3.071 0,-0.988 0.182,-1.82 0.547,-2.496 0.366,-0.676 0.846,-1.24 1.438,-1.694 0.594,-0.453 1.235,-0.842 1.928,-1.164 0.691,-0.323 1.373,-0.616 2.046,-0.877 0.691,-0.263 1.338,-0.566 1.942,-0.909 0.603,-0.343 1.086,-0.751 1.452,-1.224 0.366,-0.475 0.549,-1.055 0.549,-1.74 0,-0.807 -0.208,-1.457 -0.623,-1.951 -0.415,-0.495 -0.939,-0.858 -1.571,-1.09 -0.633,-0.232 -1.275,-0.348 -1.928,-0.348 -0.592,0 -1.22,0.091 -1.882,0.273 -0.662,0.182 -1.3,0.428 -1.913,0.74 -0.612,0.313 -1.156,0.641 -1.63,0.984 l -1.423,-2.511 c 0.612,-0.424 1.299,-0.812 2.06,-1.164 0.761,-0.354 1.572,-0.636 2.431,-0.847 0.86,-0.213 1.745,-0.319 2.654,-0.319 1.502,0 2.782,0.277 3.84,0.833 1.057,0.554 1.868,1.305 2.431,2.253 0.563,0.948 0.845,2.007 0.845,3.177 C 0.46,-1.588 0.306,-0.716 0,0" style="fill:#4d2f19;fill-opacity:1;fill-rule:nonzero;stroke:none" transform="matrix(1.3333333,0,0,-1.3333333,1319.3865,336.35853)" clip-path="url(#clipPath58)"></path>
  </g>
</svg>