<?xml version="1.0"?>


<svg version="1.1" id="svg1" width="666.66669" height="666.66669" viewBox="0 0 666.66669 666.66669" xmlns:xlink="http://www.w3.org/1999/xlink" xmlns="http://www.w3.org/2000/svg" xmlns:svg="http://www.w3.org/2000/svg">
  <defs id="defs1">
    <color-profile name="sRGB IEC61966-2.1" id="color-profile1"></color-profile>
    <clipPath clipPathUnits="userSpaceOnUse" id="clipPath2">
      <path d="M 0,500 H 500 V 0 H 0 Z" transform="translate(-149.3565,-358.53981)" id="path2"></path>
    </clipPath>
    <clipPath clipPathUnits="userSpaceOnUse" id="clipPath4">
      <path d="M 0,500 H 500 V 0 H 0 Z" transform="translate(-238.9228,-378.44481)" id="path4"></path>
    </clipPath>
    <clipPath clipPathUnits="userSpaceOnUse" id="clipPath6">
      <path d="M 0,500 H 500 V 0 H 0 Z" transform="translate(-339.92401,-334.31251)" id="path6"></path>
    </clipPath>
    <clipPath clipPathUnits="userSpaceOnUse" id="clipPath8">
      <path d="M 0,500 H 500 V 0 H 0 Z" transform="translate(-396.14651,-281.64471)" id="path8"></path>
    </clipPath>
    <clipPath clipPathUnits="userSpaceOnUse" id="clipPath10">
      <path d="M 0,500 H 500 V 0 H 0 Z" transform="translate(-350.56671,-192.3468)" id="path10"></path>
    </clipPath>
    <clipPath clipPathUnits="userSpaceOnUse" id="clipPath12">
      <path d="M 0,500 H 500 V 0 H 0 Z" transform="translate(-287.79781,-134.99561)" id="path12"></path>
    </clipPath>
    <clipPath clipPathUnits="userSpaceOnUse" id="clipPath14">
      <path d="M 0,500 H 500 V 0 H 0 Z" transform="translate(-101.0739,-255.6144)" id="path14"></path>
    </clipPath>
    <clipPath clipPathUnits="userSpaceOnUse" id="clipPath16">
      <path d="M 0,500 H 500 V 0 H 0 Z" transform="translate(-104.7859,-225.0216)" id="path16"></path>
    </clipPath>
    <clipPath clipPathUnits="userSpaceOnUse" id="clipPath18">
      <path d="M 0,500 H 500 V 0 H 0 Z" transform="translate(-123.22731,-191.9298)" id="path18"></path>
    </clipPath>
    <clipPath clipPathUnits="userSpaceOnUse" id="clipPath20">
      <path d="M 0,500 H 500 V 0 H 0 Z" transform="translate(-142.62981,-169.4006)" id="path20"></path>
    </clipPath>
    <clipPath clipPathUnits="userSpaceOnUse" id="clipPath22">
      <path d="M 0,500 H 500 V 0 H 0 Z" transform="translate(-162.8752,-148.6095)" id="path22"></path>
    </clipPath>
    <clipPath clipPathUnits="userSpaceOnUse" id="clipPath24">
      <path d="M 0,500 H 500 V 0 H 0 Z" transform="translate(-164.9281,-125.40881)" id="path24"></path>
    </clipPath>
  </defs>
  <namedview id="namedview1" pagecolor="#ffffff" bordercolor="#000000" borderopacity="0.25">
    <page x="0" y="0" id="page1" width="666.66669" height="666.66669" margin="131.0448 133.33333 131.04533" bleed="0"></page>
  </namedview>
  <g id="layer-MC0">
    <path id="path1" d="m 0,0 4.096,3.289 c 1.014,0.81 1.977,1.344 2.863,1.589 0.876,0.239 1.686,0.289 2.399,0.15 0.71,-0.134 1.362,-0.393 1.939,-0.772 0.584,-0.384 1.057,-0.806 1.412,-1.254 0.32,-0.4 0.61,-0.931 0.86,-1.58 0.243,-0.63 0.364,-1.354 0.36,-2.146 -0.009,-0.776 -0.231,-1.6 -0.66,-2.448 -0.44,-0.861 -1.186,-1.718 -2.218,-2.546 L 7.118,-8.871 Z m 13.418,-27.733 5.375,4.317 -7.815,9.733 3.936,3.159 c 1.908,1.533 3.342,3.129 4.263,4.742 0.928,1.634 1.45,3.264 1.553,4.844 0.097,1.575 -0.112,3.091 -0.62,4.506 C 19.603,4.964 18.892,6.24 17.992,7.364 16.453,9.279 14.671,10.57 12.697,11.203 10.726,11.84 8.584,11.847 6.331,11.224 4.122,10.62 1.834,9.376 -0.467,7.528 L -9.249,0.484 13.038,-27.278 Z" style="fill:#4d2f19;fill-opacity:1;fill-rule:nonzero;stroke:none" transform="matrix(1.3333333,0,0,-1.3333333,199.142,188.6136)" clip-path="url(#clipPath2)"></path>
    <path id="path3" d="m 0,0 4.448,9.78 4.253,-9.789 z m 4.169,23.272 -17.594,-37.567 6.926,-0.009 3.94,8.668 13.715,-0.018 3.774,-8.68 7.836,-0.002 -17.511,37.608 z" style="fill:#4d2f19;fill-opacity:1;fill-rule:nonzero;stroke:none" transform="matrix(1.3333333,0,0,-1.3333333,318.56373,162.0736)" clip-path="url(#clipPath4)"></path>
    <path id="path5" d="m 0,0 c 1.117,1.308 1.859,2.637 2.207,3.951 0.343,1.304 0.401,2.612 0.17,3.887 -0.224,1.248 -0.616,2.483 -1.165,3.67 -0.544,1.178 -1.147,2.313 -1.789,3.368 -0.785,1.353 -1.429,2.561 -1.969,3.695 -0.561,1.153 -0.896,2.24 -0.997,3.232 -0.098,0.904 0.116,1.652 0.656,2.288 0.801,0.937 1.748,1.321 2.996,1.198 1.297,-0.127 2.667,-0.804 4.071,-2.01 1.06,-0.909 2.036,-2.028 2.896,-3.327 0.874,-1.327 1.616,-2.67 2.204,-3.993 l 0.228,-0.521 5.331,1.999 -0.22,0.57 c -0.629,1.62 -1.503,3.303 -2.596,4.996 -1.116,1.745 -2.699,3.494 -4.715,5.208 -1.836,1.439 -3.738,2.446 -5.657,2.992 -1.948,0.542 -3.819,0.59 -5.559,0.141 -1.772,-0.465 -3.317,-1.462 -4.594,-2.961 -1.094,-1.279 -1.757,-2.61 -1.969,-3.951 -0.217,-1.323 -0.143,-2.665 0.223,-3.99 0.349,-1.282 0.843,-2.55 1.468,-3.766 0.578,-1.146 1.219,-2.319 1.904,-3.49 0.653,-1.091 1.216,-2.199 1.674,-3.293 0.435,-1.039 0.66,-2.033 0.67,-2.954 C -4.526,6.093 -4.832,5.302 -5.437,4.591 -6.169,3.74 -7.003,3.26 -7.916,3.163 -8.903,3.057 -9.902,3.216 -10.895,3.64 c -1.043,0.424 -1.995,1.006 -2.831,1.726 -0.769,0.656 -1.508,1.47 -2.193,2.422 -0.686,0.949 -1.29,1.969 -1.791,3.029 -0.506,1.088 -0.902,2.103 -1.174,3.015 l -0.17,0.579 -5.704,-1.731 0.183,-0.588 c 0.411,-1.261 0.965,-2.573 1.645,-3.899 0.699,-1.373 1.543,-2.704 2.5,-3.953 0.976,-1.295 2.117,-2.5 3.386,-3.577 2.103,-1.801 4.232,-3.012 6.331,-3.602 1.131,-0.312 2.234,-0.47 3.281,-0.47 0.919,0 1.826,0.123 2.695,0.366 C -2.884,-2.529 -1.291,-1.505 0,0" style="fill:#4d2f19;fill-opacity:1;fill-rule:nonzero;stroke:none" transform="matrix(1.3333333,0,0,-1.3333333,453.232,220.91667)" clip-path="url(#clipPath6)"></path>
    <path id="path7" d="m 0,0 -0.079,0.602 -6.116,-0.896 1.451,-9.803 -29.105,-4.293 -0.595,-0.09 1.005,-6.822 29.702,4.378 1.483,-10.071 6.108,0.908 z" style="fill:#4d2f19;fill-opacity:1;fill-rule:nonzero;stroke:none" transform="matrix(1.3333333,0,0,-1.3333333,528.19533,291.1404)" clip-path="url(#clipPath8)"></path>
    <path id="path9" d="m 0,0 -13.833,-22.891 -0.305,-0.516 5.272,-3.189 10.576,17.511 7.636,-4.612 -9.064,-15.003 5.278,-3.184 9.064,14.997 7.507,-4.538 -10.188,-16.865 5.277,-3.19 13.446,22.258 0.317,0.513 -30.47,18.413 z" style="fill:#4d2f19;fill-opacity:1;fill-rule:nonzero;stroke:none" transform="matrix(1.3333333,0,0,-1.3333333,467.42227,410.20427)" clip-path="url(#clipPath10)"></path>
    <path id="path11" d="m 0,0 -24.684,-6.859 -0.58,-0.162 1.653,-5.945 18.626,5.18 7.884,-28.349 0.166,-0.577 6.645,1.848 -9.537,34.3 z" style="fill:#4d2f19;fill-opacity:1;fill-rule:nonzero;stroke:none" transform="matrix(1.3333333,0,0,-1.3333333,383.7304,486.67253)" clip-path="url(#clipPath12)"></path>
    <path id="path13" d="M 0,0 0.07,-0.15 3.79,0.907 3.66,1.125 C 3.322,1.692 3.049,2.42 2.847,3.29 2.646,4.156 2.635,5.14 2.812,6.217 c 0.18,1.094 0.533,2.058 1.049,2.866 0.515,0.809 1.161,1.477 1.924,1.989 0.761,0.513 1.639,0.865 2.611,1.049 0.981,0.182 2.034,0.187 3.127,0.005 1.054,-0.173 2.015,-0.525 2.856,-1.046 C 15.213,10.561 15.93,9.919 16.514,9.17 17.089,8.427 17.497,7.594 17.733,6.691 17.967,5.789 18.008,4.867 17.857,3.953 17.691,2.94 17.356,2.051 16.863,1.309 16.362,0.559 15.876,-0.068 15.417,-0.553 l -0.164,-0.171 3.344,-2.108 0.11,0.125 c 0.584,0.667 1.155,1.523 1.699,2.544 0.548,1.028 0.943,2.248 1.17,3.627 0.256,1.557 0.213,3.063 -0.131,4.475 -0.342,1.414 -0.949,2.703 -1.801,3.83 -0.853,1.126 -1.941,2.076 -3.235,2.824 -1.295,0.746 -2.789,1.262 -4.442,1.534 C 10.489,16.368 9.035,16.341 7.643,16.05 6.249,15.756 4.953,15.214 3.788,14.441 2.622,13.665 1.617,12.631 0.803,11.367 -0.008,10.11 -0.573,8.613 -0.873,6.915 -1.066,5.86 -1.12,4.864 -1.035,3.955 -0.948,3.049 -0.795,2.243 -0.577,1.561 -0.364,0.888 -0.171,0.363 0,0" style="fill:#4d2f19;fill-opacity:1;fill-rule:nonzero;stroke:none" transform="matrix(1.3333333,0,0,-1.3333333,134.7652,325.84747)" clip-path="url(#clipPath14)"></path>
    <path id="path15" d="m 0,0 c -0.489,0.827 -0.799,1.754 -0.921,2.758 -0.126,1.039 -0.049,2.037 0.229,2.971 0.277,0.935 0.724,1.792 1.327,2.548 0.598,0.755 1.338,1.385 2.203,1.872 0.858,0.485 1.821,0.796 2.866,0.923 0.292,0.036 0.582,0.055 0.868,0.06 0.738,0.014 1.459,-0.071 2.151,-0.255 0.959,-0.256 1.838,-0.679 2.614,-1.259 0.774,-0.582 1.416,-1.301 1.906,-2.141 0.494,-0.837 0.806,-1.78 0.93,-2.8 C 14.295,3.657 14.218,2.666 13.94,1.733 13.661,0.801 13.21,-0.045 12.599,-0.782 11.981,-1.525 11.231,-2.152 10.371,-2.646 9.514,-3.14 8.541,-3.457 7.481,-3.586 6.435,-3.711 5.428,-3.642 4.477,-3.374 3.529,-3.111 2.657,-2.686 1.891,-2.11 1.126,-1.537 0.491,-0.828 0,0 m 6.771,-7.628 c 0.393,0.007 0.79,0.036 1.188,0.084 1.534,0.185 2.957,0.664 4.228,1.421 1.276,0.754 2.388,1.726 3.307,2.887 0.921,1.162 1.605,2.475 2.032,3.903 0.428,1.432 0.553,2.933 0.368,4.461 -0.188,1.55 -0.669,2.989 -1.427,4.273 -0.756,1.284 -1.733,2.391 -2.903,3.292 -1.171,0.897 -2.481,1.565 -3.896,1.984 C 8.245,15.098 6.752,15.219 5.225,15.031 3.658,14.842 2.21,14.367 0.922,13.618 -0.36,12.875 -1.465,11.913 -2.363,10.76 -3.252,9.611 -3.911,8.31 -4.322,6.894 -4.732,5.474 -4.842,3.961 -4.652,2.397 -4.468,0.868 -4,-0.562 -3.261,-1.849 c 0.736,-1.288 1.693,-2.402 2.845,-3.313 1.151,-0.912 2.459,-1.592 3.888,-2.02 1.062,-0.319 2.168,-0.468 3.299,-0.446" style="fill:#4d2f19;fill-opacity:1;fill-rule:nonzero;stroke:none" transform="matrix(1.3333333,0,0,-1.3333333,139.71453,366.63787)" clip-path="url(#clipPath16)"></path>
    <path id="path17" d="m 0,0 -3.43,7.769 5.271,2.326 3.86,-8.742 0.078,-0.179 3.431,1.515 -5.435,12.31 -0.078,0.179 -20.162,-8.901 -0.179,-0.078 1.575,-3.568 8.237,3.635 3.35,-7.589 0.078,-0.179 z" style="fill:#4d2f19;fill-opacity:1;fill-rule:nonzero;stroke:none" transform="matrix(1.3333333,0,0,-1.3333333,164.30307,410.76027)" clip-path="url(#clipPath18)"></path>
    <path id="path19" d="m 0,0 0.106,-0.163 3.149,2.034 -7.303,11.3 -0.107,0.164 -18.509,-11.958 -0.164,-0.106 2.118,-3.276 7.561,4.886 4.501,-6.969 0.106,-0.163 3.123,2.019 -4.609,7.132 4.841,3.127 z" style="fill:#4d2f19;fill-opacity:1;fill-rule:nonzero;stroke:none" transform="matrix(1.3333333,0,0,-1.3333333,190.17307,440.7992)" clip-path="url(#clipPath20)"></path>
    <path id="path21" d="m 0,0 2.65,2.651 -10.386,10.384 -0.138,0.137 -15.581,-15.583 -0.137,-0.138 10.684,-10.681 0.138,-0.137 2.65,2.651 -8.064,8.062 3.927,3.927 6.917,-6.917 2.65,2.65 -6.916,6.919 3.841,3.84 z" style="fill:#4d2f19;fill-opacity:1;fill-rule:nonzero;stroke:none" transform="matrix(1.3333333,0,0,-1.3333333,217.16693,468.52067)" clip-path="url(#clipPath22)"></path>
    <path id="path23" d="m 0,0 13.174,-7.78 1.908,3.228 -9.819,5.798 2.822,4.781 8.423,-4.972 1.907,3.228 -8.422,4.973 2.76,4.678 9.459,-5.583 1.904,3.227 -12.814,7.565 z" style="fill:#4d2f19;fill-opacity:1;fill-rule:nonzero;stroke:none" transform="matrix(1.3333333,0,0,-1.3333333,219.90413,499.45493)" clip-path="url(#clipPath24)"></path>
  </g>
</svg>